<svg width="110" height="106" fill="none" xmlns="http://www.w3.org/2000/svg"><path d="M106.464 36.304c-.682-17.793-9.218-32.26-20.56-32.26-1.722 0-3.406.32-5.009.961L21.302 24.282 30.36 87.08l55.025-17.794 2.965-.641c10.941-.802 18.756-15.149 18.115-32.342z" fill="#fff"/><path d="M30.4 90.487c-.642 0-1.243-.16-1.804-.52-.842-.522-1.403-1.403-1.563-2.405l-9.057-62.8a3.385 3.385 0 012.324-3.726L79.813 1.759A16.74 16.74 0 0185.904.637c6.613 0 12.745 3.927 17.153 11.06 4.008 6.453 6.412 15.15 6.773 24.447.36 8.977-1.483 17.554-5.13 24.126-3.887 7.013-9.498 11.181-15.87 11.742l-2.565.561-54.864 17.754c-.32.08-.681.16-1.002.16zm-5.33-63.84l8.094 55.985 51.177-16.55a1.2 1.2 0 01.321-.081l2.966-.641c.16-.04.32-.04.48-.08 8.817-.642 15.51-13.586 14.949-28.855-.641-16.231-8.176-28.975-17.153-28.975-1.242 0-2.524.24-3.767.721-.12.04-.2.08-.32.12L25.069 26.646z" fill="#009640"/><path d="M24.708 88.363c11.355 0 20.56-14.443 20.56-32.26 0-17.818-9.205-32.262-20.56-32.262-11.354 0-20.559 14.444-20.559 32.261 0 17.818 9.205 32.261 20.56 32.261z" fill="#fff"/><path d="M24.709 91.73c-6.693 0-12.865-3.928-17.393-11.021C3.108 74.096.743 65.319.743 56.102c0-9.217 2.325-17.994 6.573-24.606 4.528-7.094 10.7-11.021 17.393-11.021 6.692 0 12.864 3.927 17.393 11.02 4.208 6.613 6.572 15.39 6.572 24.607 0 9.218-2.324 17.994-6.572 24.607-4.529 7.093-10.7 11.02-17.393 11.02zm0-64.483c-9.298 0-17.153 13.225-17.153 28.855s7.855 28.855 17.153 28.855c9.297 0 17.152-13.225 17.152-28.855S34.006 27.248 24.71 27.248z" fill="#009640"/><path d="M24.709 66.682c3.275 0 5.93-4.18 5.93-9.338 0-5.157-2.655-9.337-5.93-9.337-3.276 0-5.932 4.18-5.932 9.337s2.656 9.338 5.932 9.338z" fill="#009640"/><path d="M24.709 66.883c-3.407 0-6.172-4.288-6.172-9.538s2.765-9.538 6.172-9.538c3.406 0 6.172 4.288 6.172 9.538s-2.766 9.538-6.172 9.538zm0-18.676c-3.166 0-5.731 4.088-5.731 9.098 0 5.01 2.565 9.097 5.73 9.097 3.167 0 5.732-4.088 5.732-9.097 0-5.01-2.565-9.098-5.731-9.098z" fill="#009640"/><path d="M43.384 42.597s1.684 4.809 1.884 14.748c.2 9.978-1.042 35.828 0 44.925l60.875-18.034c.521.801.682-30.819.161-46.529-.441-13.465-29.657-7.935-29.657-7.935L43.384 42.597z" fill="#fff"/><path d="M45.267 105.676a3.568 3.568 0 01-1.883-.561c-.842-.561-1.403-1.443-1.483-2.445-.681-6.011-.44-18.555-.2-29.616.12-6.212.24-12.063.16-15.67-.2-9.177-1.683-13.666-1.723-13.746a3.349 3.349 0 012.004-4.248l33.263-12.784c.2-.08.4-.12.6-.16 2.165-.401 21.201-3.768 29.577 2.965 2.565 2.044 4.007 4.89 4.088 8.216.28 8.376.36 20.559.32 29.135 0 4.89-.08 9.298-.16 12.424-.04 1.643-.08 2.965-.12 3.847-.08 1.483-.201 3.727-2.525 4.448-.12.04-.281.08-.401.08l-60.555 17.914c-.32.161-.64.201-.962.201zm2.124-60.996c.522 2.605 1.123 6.773 1.283 12.584.08 3.727-.04 9.658-.16 15.95-.2 8.697-.401 18.275-.12 24.607l54.663-16.19c.281-7.054.361-30.499-.08-43.804-.04-1.322-.521-2.324-1.563-3.126-4.448-3.567-16.832-2.925-23.805-1.643L47.392 44.68z" fill="#009640"/><path d="M47.592 45.562s-1.403-5.45-2.444-8.135l29.856-15.51 20.479.642 6.252 4.007s1.282 8.336 1.242 13.025l-55.385 5.971z" fill="#fff"/></svg>