<svg width="13" height="17" fill="none" xmlns="http://www.w3.org/2000/svg"><path d="M6.452 0c3.334 0 6.043 2.556 6.043 5.701a5.39 5.39 0 01-.906 2.993L6.86 15.992a.48.48 0 01-.342.219.513.513 0 01-.514-.228l-4.74-7.365a5.385 5.385 0 01-.857-2.917C.408 2.556 3.118 0 6.452 0zm0 8.552c1.692 0 3.021-1.293 3.021-2.85 0-1.569-1.36-2.851-3.021-2.851C4.79 2.85 3.43 4.133 3.43 5.7c0 1.549 1.31 2.85 3.022 2.85z" fill="#31AB4C"/><path d="M6.452 0v2.85C4.79 2.85 3.43 4.134 3.43 5.702c0 1.549 1.31 2.85 3.022 2.85v7.665a.506.506 0 01-.447-.233l-4.74-7.365a5.385 5.385 0 01-.857-2.917C.408 2.556 3.118 0 6.452 0z" fill="#34B350"/></svg>