<svg width="14" height="14" fill="none" xmlns="http://www.w3.org/2000/svg"><path d="M11.675 10.971a2.676 2.676 0 01-.179.55 3.22 3.22 0 01-.263.518c-.159.248-.534.473-1.125.677-.548.184-1.068.234-1.559.148a3.141 3.141 0 01-.857-.282 6.647 6.647 0 01-.36-.183 32.425 32.425 0 01-.415-.242 16.3 16.3 0 00-.366-.212 7.36 7.36 0 01-1.284-.91c-.608-.54-1.213-1.238-1.813-2.093-.6-.856-1.051-1.661-1.353-2.417a7.354 7.354 0 01-.419-1.516c-.007-.051-.032-.19-.075-.417a32.097 32.097 0 01-.086-.473 6.619 6.619 0 01-.05-.4 3.133 3.133 0 01.026-.902c.087-.49.31-.963.67-1.416.392-.487.732-.762 1.018-.828.143-.035.336-.059.577-.072a2.68 2.68 0 01.578.02c.075.012.13.03.164.053.09.048.196.276.317.682.041.111.096.27.164.474a22.616 22.616 0 00.364 1.028c.013.024.047.099.105.224.058.126.099.23.122.314a.53.53 0 01.016.238c-.018.107-.118.227-.298.36-.18.133-.37.25-.572.353a4.89 4.89 0 00-.57.337c-.179.123-.276.232-.293.328a.549.549 0 00.009.187c.014.076.027.135.039.176.012.04.038.11.078.211l.066.168a8.45 8.45 0 001.062 2.123 8.522 8.522 0 001.636 1.721c.01.007.055.047.135.119a1.447 1.447 0 00.325.242c.067.04.125.063.173.072.096.016.232-.038.407-.164a4.89 4.89 0 00.511-.421c.165-.156.34-.295.527-.42.187-.123.333-.176.44-.157a.53.53 0 01.218.096c.07.05.155.125.254.222.098.096.157.155.175.174.12.104.248.211.385.323.136.112.29.235.458.37.17.133.3.238.39.315.34.252.518.429.534.53.01.04.007.098-.006.172z" fill="#2FA74A"/></svg>