<svg width="69" height="69" fill="none" xmlns="http://www.w3.org/2000/svg"><path d="M41.37 43.144V45H27.131v-1.479l8.439-8.265c1.063-1.044 1.779-1.943 2.146-2.697.387-.773.58-1.547.58-2.32 0-1.199-.416-2.127-1.247-2.784-.812-.677-1.982-1.015-3.509-1.015-2.378 0-4.224.754-5.539 2.262l-1.479-1.276c.793-.928 1.798-1.643 3.016-2.146 1.237-.503 2.63-.754 4.176-.754 2.069 0 3.702.493 4.901 1.479 1.218.967 1.827 2.3 1.827 4.002a6.89 6.89 0 01-.696 3.016c-.464.967-1.344 2.078-2.639 3.335l-6.902 6.786H41.37z" fill="#2FA74A"/><circle cx="34.5" cy="34.5" r="34" stroke="#E9E9F0"/></svg>