<svg width="69" height="69" fill="none" xmlns="http://www.w3.org/2000/svg"><path d="M35.164 33.226c1.991.193 3.509.812 4.553 1.856 1.044 1.025 1.566 2.34 1.566 3.944 0 1.16-.29 2.214-.87 3.161-.58.928-1.45 1.672-2.61 2.233-1.14.541-2.542.812-4.205.812-1.45 0-2.842-.213-4.176-.638-1.334-.445-2.426-1.054-3.277-1.827l1.334-2.291c.696.657 1.585 1.189 2.668 1.595 1.083.387 2.233.58 3.451.58 1.508 0 2.678-.319 3.509-.957.85-.638 1.276-1.518 1.276-2.639 0-1.121-.416-1.991-1.247-2.61-.831-.619-2.088-.928-3.77-.928h-1.624v-2.03l5.104-6.264h-9.773V24.7h13.398v1.972l-5.307 6.554z" fill="#2FA74A"/><circle cx="34.5" cy="34.5" r="34" stroke="#E9E9F0"/></svg>