<svg width="69" height="69" fill="none" xmlns="http://www.w3.org/2000/svg"><path d="M33.192 32.791c2.9 0 5.027.551 6.38 1.653 1.373 1.083 2.059 2.571 2.059 4.466 0 1.199-.29 2.281-.87 3.248-.56.947-1.421 1.701-2.581 2.262-1.14.541-2.552.812-4.234.812a13.57 13.57 0 01-4.147-.638c-1.334-.445-2.436-1.054-3.306-1.827l1.334-2.291c.696.657 1.585 1.189 2.668 1.595a10.09 10.09 0 003.422.58c1.527 0 2.707-.319 3.538-.957.85-.657 1.276-1.547 1.276-2.668 0-1.218-.464-2.136-1.392-2.755-.928-.638-2.513-.957-4.756-.957h-4.611L29.045 24.7H40.5v2.523h-9.019l-.551 5.568h2.262z" fill="#2FA74A"/><circle cx="34.5" cy="34.5" r="34" stroke="#E9E9F0"/></svg>