<svg width="69" height="69" fill="none" xmlns="http://www.w3.org/2000/svg"><path d="M35.15 32.675c1.334 0 2.523.251 3.567.754 1.063.503 1.895 1.228 2.494 2.175.6.928.899 2.001.899 3.219 0 1.276-.319 2.397-.957 3.364-.619.967-1.479 1.72-2.581 2.262-1.083.522-2.3.783-3.654.783-2.726 0-4.833-.88-6.322-2.639-1.47-1.76-2.204-4.253-2.204-7.482 0-2.262.396-4.186 1.189-5.771.812-1.605 1.933-2.813 3.364-3.625 1.45-.831 3.132-1.247 5.046-1.247.986 0 1.914.106 2.784.319.87.193 1.624.483 2.262.87l-1.102 2.262c-.967-.638-2.262-.957-3.886-.957-2.107 0-3.76.657-4.959 1.972-1.199 1.295-1.798 3.19-1.798 5.684 0 .31.01.551.029.725.58-.87 1.373-1.527 2.378-1.972 1.025-.464 2.175-.696 3.451-.696zm-.348 10.208c1.334 0 2.417-.358 3.248-1.073.831-.715 1.247-1.672 1.247-2.871s-.425-2.146-1.276-2.842c-.831-.715-1.953-1.073-3.364-1.073-.909 0-1.72.174-2.436.522a4.242 4.242 0 00-1.653 1.421c-.387.6-.58 1.266-.58 2.001 0 .715.184 1.373.551 1.972.387.58.938 1.054 1.653 1.421.735.348 1.605.522 2.61.522z" fill="#2FA74A"/><circle cx="34.5" cy="34.5" r="34" stroke="#E9E9F0"/></svg>