<svg width="69" height="69" fill="none" xmlns="http://www.w3.org/2000/svg"><path d="M41.66 42.477V45H27.073v-1.972l8.265-7.975c1.005-.967 1.682-1.798 2.03-2.494.348-.715.522-1.43.522-2.146 0-1.063-.377-1.885-1.131-2.465-.735-.6-1.798-.899-3.19-.899-2.243 0-3.973.735-5.191 2.204l-1.972-1.711c.793-.967 1.827-1.72 3.103-2.262 1.295-.541 2.736-.812 4.321-.812 2.127 0 3.818.512 5.075 1.537 1.257 1.005 1.885 2.378 1.885 4.118a7.015 7.015 0 01-.696 3.074c-.464.967-1.344 2.069-2.639 3.306l-6.206 5.974H41.66z" fill="#2FA74A"/><circle cx="34.5" cy="34.5" r="34" stroke="#E9E9F0"/></svg>