<svg width="220" height="125" fill="none" xmlns="http://www.w3.org/2000/svg"><path d="M1.47 0c1.34-.042 4.399 3.603 7.583 6.578 3.183 2.974 19.94 18.433 34.017 25.596 14.076 7.122 18.935 5.823 28.32.964 9.425-4.86 14.075-9.175 17.846-12.778 3.77-3.56 8.672-5.53 12.442-4.775 3.77.754 9.091 4.44 12.652 9.384 3.561 4.943 11.353 15.081 17.218 15.96 5.823.88 10.305-3.1 11.855-4.859 1.55-1.801 1.048-7.29 1.718-10.054.628-2.765 3.1-4.608 4.064-8.044 0 0 2.094 4.148 2.681 9.343 0 0 3.561-2.095 4.398-3.98.796-1.885 1.928-3.394 1.928-4.315 0 0 2.094 5.446.879 9.258-1.215 3.812-2.597 8.337-2.011 10.222.587 1.885 2.933 2.765 3.896 4.399.964 1.634.964 4.524 1.718 7.373.712 2.849 3.393 9.175 1.55 11.185-1.885 2.011-4.776 2.011-7.205-1.298-2.43-3.31-6.242-6.242-11.018-5.991-4.776.251-10.809 5.74-10.557 7.373.251 1.634 1.717 3.31 3.812 5.362 2.095 2.011 2.597 4.944.335 7.29s-4.147 2.346-5.111 1.466c-.963-.88-.628-2.346.587-3.016 1.215-.67 3.309-2.765.628-3.813-2.681-1.047-6.745-2.848-8.672 0-1.927 2.85-4.608 12.904-4.608 17.68 0 4.775 1.131 12.483 8.337 18.809 7.205 6.326 13.992 10.18 18.558 12.945 4.608 2.765 6.326 6.829 1.844 6.242-4.483-.586-18.098-9.426-23.796-14.369-5.697-4.985-9.886-8.546-12.819-14.37-2.932-5.822-1.843-10.724-4.231-13.321-2.388-2.598-10.934-7.373-17.972-11.479-7.038-4.105-8.337-8.546-8.42-11.688-.126-3.142.628-4.231-5.95-6.284-6.618-2.053-25.847-6.703-45.663-20.486-19.815-13.782-27.607-24.8-31-28.738C-.793 1.509-.08.042 1.47 0z" fill="#fff"/><path d="M102.222 93.255c4.064-2.597 4.399-6.535 3.226-7.834-1.131-1.299-3.938-1.802-6.996-.251-3.016 1.508-7.457 6.493-8.295 7.624-.796 1.131-2.388 3.142-5.949 4.525-3.56 1.424-5.949 1.633-8.588-2.095-2.64-3.729-3.435-12.275-3.31-14.16.126-1.885 1.383-2.597 2.933-3.058 1.55-.46 9.845-3.31 15.71-8.17 5.823-4.859 11.144-13.824 11.144-13.824l-5.32-3.56s-5.53 10.389-12.862 17.091c-7.373 6.703-16.338 4.986-16.338 4.986l9.51-17.428-5.195-2.932-25.304 47.381 5.698 2.471 13.95-26.644s-.167 10.055 1.97 17.177c2.136 7.079 6.534 8.839 10.053 9.132 3.52.293 9.05-4.524 9.05-4.524.963 1.34 1.926 3.142 5.53 3.854 3.56.712 7.917-2.178 8.922-3.352 1.048-1.172.252-1.885-.628-1.298-.922.586-2.64 2.095-6.326 1.927-3.686-.168-2.555-3.184-2.555-3.184 3.477-.754 6.2-1.466 9.97-3.854zm-7.373-2.388c1.215-1.55 3.812-3.812 5.739-3.812 1.886 0 2.472 1.592.796 3.142-1.675 1.55-4.524 3.351-6.41 4.063-1.884.67-1.675-.125-1.675-.125-.21-.503.335-1.718 1.55-3.268zm34.184 7.163c-.544 0-2.764 1.132-4.817 1.844-2.053.712-1.885-1.005-.922-2.807.922-1.801 5.362-9.719 5.362-9.719-.46-1.299-2.639-1.424-2.639-1.424s-1.759 4.063-3.98 5.949c-1.675 1.424-4.734 1.466-6.367 1.424l3.854-7.624c-.671-1.132-3.352-1.802-3.352-1.802L107.5 101.97c.755 1.299 3.017 1.508 3.017 1.508l4.189-8.253c4.608.21 7.75-1.592 7.75-1.592s-1.634 2.095-2.597 4.231c-.964 2.095-.67 4.902 1.34 5.153 2.221.252 4.525-1.257 6.284-2.472 1.76-1.256 2.095-2.513 1.55-2.513zm9.427-10.305c.167-.712 3.477-3.184 5.655-3.352 2.179-.21 4.944 1.383 3.059 4.148-1.928 2.765-6.368 6.87-7.625 8.672-1.257 1.843-1.005 3.602 1.215 3.016 2.22-.629 3.98-1.634 4.441-1.927.586-.377 2.178.084.293 1.927-1.508 1.466-5.446 3.309-7.792 3.016-2.346-.335-3.561-2.807-2.598-5.027.964-2.22 3.519-4.692 5.614-6.535 2.053-1.843 3.142-3.268 2.723-4.064-.419-.754-2.849.335-4.105.712-1.257.377-.88-.586-.88-.586zm21.239-3.981s1.508.461 2.304 1.55c0 0-2.388 4.944-4.105 7.918-1.718 2.974-2.179 6.116-.335 5.614 1.843-.503 6.116-4.65 11.101-11.856 0 0 1.676.042 2.556.963l-12.568 26.142-3.016-.796 8.169-16.925s-6.494 7.457-9.719 7.038c-3.226-.419-1.592-5.572-.042-9.426s5.655-10.222 5.655-10.222zm11.731 31.337s-1.592-.168-2.347-1.341c0 0 13.322-32.174 15.752-34.268 0 0 1.592.21 2.179 1.592 0 0-6.159 11.353-7.625 14.704 0 0 2.723-2.555 6.033-5.404 3.309-2.849 5.53-4.19 6.996-2.807 1.466 1.382-.042 4.525-1.424 6.577-1.383 2.011-2.933 5.153-2.011 5.781.879.671 1.927.084 3.225-.88 1.341-.963 2.179-.376.964 1.006-1.215 1.383-3.184 3.435-6.116 3.477-2.933.042-2.305-4.273-.336-7.122 1.969-2.89 2.346-4.734 1.676-5.236-.67-.503-2.555.335-5.236 3.1-2.682 2.765-5.614 8.378-7.709 12.442-2.094 4.022-4.021 8.379-4.021 8.379zm36.154-30.75s1.508.46 2.304 1.55c0 0-2.388 4.902-4.106 7.876-1.717 2.974-2.178 6.116-.335 5.614 1.843-.503 6.116-4.65 11.102-11.856 0 0 1.675.042 2.555.963l-12.735 26.393-2.849-1.089 8.169-16.925s-6.493 7.457-9.719 7.038c-3.226-.419-1.592-5.572-.042-9.426 1.55-3.812 5.656-10.138 5.656-10.138z" fill="#fff"/></svg>