<svg width="173" height="99" fill="none" xmlns="http://www.w3.org/2000/svg"><path d="M1.383 0c1.057-.033 3.469 2.841 5.98 5.187 2.51 2.345 15.724 14.535 26.824 20.184 11.1 5.616 14.932 4.592 22.332.76 7.433-3.832 11.1-7.235 14.072-10.076 2.974-2.808 6.839-4.36 9.812-3.766 2.973.595 7.169 3.502 9.977 7.4 2.808 3.898 8.952 11.893 13.577 12.587 4.592.693 8.127-2.445 9.349-3.832 1.222-1.42.826-5.748 1.354-7.929.496-2.18 2.445-3.634 3.205-6.343 0 0 1.652 3.27 2.114 7.367 0 0 2.808-1.652 3.469-3.138.627-1.487 1.519-2.676 1.519-3.403 0 0 1.652 4.295.694 7.301-.958 3.006-2.048 6.574-1.586 8.06.463 1.487 2.313 2.18 3.073 3.47.76 1.288.76 3.567 1.354 5.813.562 2.247 2.676 7.235 1.223 8.82-1.487 1.587-3.766 1.587-5.683-1.023-1.916-2.61-4.922-4.922-8.688-4.724-3.766.198-8.523 4.526-8.325 5.814.199 1.288 1.355 2.61 3.007 4.228 1.651 1.586 2.048 3.899.264 5.749-1.784 1.85-3.271 1.85-4.03 1.156-.76-.694-.496-1.85.462-2.379.958-.528 2.61-2.18.496-3.006-2.115-.826-5.319-2.246-6.839 0-1.52 2.246-3.634 10.175-3.634 13.94 0 3.767.892 9.845 6.574 14.834 5.682 4.988 11.034 8.027 14.635 10.208 3.634 2.18 4.988 5.384 1.454 4.922-3.535-.463-14.272-7.433-18.764-11.331-4.493-3.931-7.797-6.74-10.11-11.331-2.312-4.592-1.453-8.457-3.336-10.506-1.883-2.048-8.622-5.814-14.172-9.051-5.55-3.238-6.574-6.74-6.64-9.217-.099-2.478.496-3.337-4.69-4.955-5.22-1.619-20.384-5.286-36.01-16.154C10.072 14.767 3.927 6.079 1.252 2.973-.401 1.19.16.033 1.383 0z" fill="#32A14B"/><path d="M80.832 73.537c3.204-2.048 3.468-5.153 2.543-6.178-.892-1.024-3.105-1.42-5.516-.198-2.379 1.19-5.88 5.12-6.541 6.013-.628.892-1.883 2.477-4.692 3.567-2.808 1.124-4.69 1.289-6.772-1.651-2.08-2.94-2.709-9.68-2.61-11.166.1-1.487 1.09-2.048 2.313-2.412 1.222-.363 7.763-2.61 12.388-6.442 4.592-3.832 8.788-10.901 8.788-10.901l-4.196-2.808s-4.36 8.193-10.142 13.478c-5.814 5.286-12.883 3.931-12.883 3.931l7.498-13.742-4.096-2.313-19.953 37.363 4.493 1.95 11-21.011s-.132 7.928 1.553 13.544c1.685 5.583 5.154 6.97 7.928 7.202 2.775.231 7.136-3.568 7.136-3.568.76 1.057 1.52 2.478 4.36 3.04 2.809.56 6.244-1.719 7.037-2.644.826-.924.198-1.486-.495-1.024-.727.463-2.082 1.652-4.989 1.52-2.907-.132-2.015-2.51-2.015-2.51 2.742-.595 4.89-1.157 7.863-3.04zm-5.814-1.883c.957-1.222 3.006-3.006 4.525-3.006 1.487 0 1.95 1.255.628 2.478-1.322 1.222-3.568 2.642-5.054 3.204-1.487.529-1.322-.1-1.322-.1-.165-.396.264-1.354 1.222-2.576zm26.956 5.65c-.429 0-2.18.891-3.799 1.453-1.619.562-1.486-.793-.727-2.213.727-1.42 4.229-7.664 4.229-7.664-.363-1.024-2.081-1.124-2.081-1.124s-1.388 3.205-3.139 4.691c-1.321 1.124-3.733 1.157-5.021 1.124l3.04-6.013c-.53-.892-2.644-1.42-2.644-1.42l-6.838 14.27c.595 1.025 2.379 1.19 2.379 1.19l3.303-6.508c3.634.165 6.112-1.255 6.112-1.255s-1.289 1.652-2.048 3.336c-.76 1.652-.529 3.866 1.057 4.064 1.75.198 3.567-.991 4.955-1.95 1.387-.99 1.652-1.981 1.222-1.981zm7.433-8.128c.132-.561 2.741-2.51 4.459-2.642 1.718-.166 3.898 1.09 2.412 3.27-1.52 2.18-5.021 5.418-6.013 6.838-.991 1.454-.792 2.841.958 2.379 1.751-.496 3.139-1.288 3.502-1.52.463-.297 1.718.066.231 1.52-1.189 1.156-4.294 2.61-6.144 2.378-1.85-.264-2.808-2.213-2.048-3.964.76-1.75 2.775-3.7 4.426-5.153 1.619-1.454 2.478-2.577 2.148-3.205-.331-.594-2.247.264-3.238.562-.991.297-.693-.463-.693-.463zm16.748-3.138s1.19.364 1.817 1.222c0 0-1.883 3.898-3.237 6.244-1.355 2.346-1.718 4.823-.264 4.427 1.453-.397 4.823-3.667 8.754-9.35 0 0 1.321.034 2.015.76l-9.91 20.615-2.379-.628 6.442-13.346s-5.121 5.88-7.664 5.55c-2.544-.33-1.256-4.394-.033-7.433 1.222-3.04 4.459-8.06 4.459-8.06zm9.252 24.711s-1.256-.132-1.85-1.057c0 0 10.505-25.371 12.421-27.023 0 0 1.255.165 1.718 1.255 0 0-4.856 8.953-6.013 11.595 0 0 2.148-2.015 4.757-4.261 2.61-2.246 4.361-3.304 5.517-2.213 1.156 1.09-.033 3.567-1.123 5.186-1.09 1.586-2.312 4.063-1.586 4.559.694.528 1.52.066 2.544-.694 1.057-.76 1.718-.297.76.793s-2.511 2.709-4.823 2.742c-2.313.033-1.817-3.37-.265-5.616 1.553-2.28 1.85-3.733 1.322-4.13-.529-.396-2.015.265-4.13 2.445-2.114 2.18-4.426 6.607-6.078 9.812-1.652 3.17-3.171 6.607-3.171 6.607zm28.508-24.248s1.189.363 1.817 1.222c0 0-1.883 3.865-3.237 6.21-1.355 2.346-1.718 4.824-.265 4.428 1.454-.397 4.824-3.667 8.755-9.35 0 0 1.321.034 2.015.76l-10.043 20.813-2.246-.86 6.442-13.346s-5.121 5.88-7.665 5.55c-2.543-.33-1.255-4.393-.033-7.432 1.223-3.007 4.46-7.995 4.46-7.995z" fill="#000"/></svg>